<?xml version="1.0" encoding="utf-8"?>
<!-- Generator: Adobe Illustrator 26.0.3, SVG Export Plug-In . SVG Version: 6.00 Build 0)  -->
<svg version="1.1" id="Слой_1" xmlns="http://www.w3.org/2000/svg" xmlns:xlink="http://www.w3.org/1999/xlink" x="0px" y="0px"
	 viewBox="0 0 288 307" style="enable-background:new 0 0 288 307;" xml:space="preserve">
<style type="text/css">
	.st0{fill:#FFFFFF;}
	.st1{fill:none;stroke:#000000;stroke-width:7;stroke-miterlimit:10;}
	.st2{fill:none;stroke:#000000;stroke-width:7;stroke-linecap:round;stroke-miterlimit:10;}
</style>
<g>
	<path class="st0" d="M261.79,148c0,6.1-5.03,11.72-5.95,17.56c-0.94,5.99,2.09,12.89,0.26,18.54c-1.87,5.75-8.39,9.54-11.1,14.85
		c-2.74,5.36-1.99,12.87-5.51,17.7c-3.53,4.86-10.91,6.46-15.15,10.69c-4.24,4.24-5.84,11.61-10.69,15.15
		c-4.83,3.52-12.34,2.77-17.7,5.51c-5.31,2.71-9.1,9.23-14.85,11.1c-5.65,1.83-12.55-1.2-18.54-0.26
		c-5.84,0.92-11.47,5.95-17.56,5.95c-6.1,0-11.72-5.03-17.56-5.95c-5.99-0.94-12.89,2.09-18.54,0.26
		c-5.75-1.87-9.54-8.39-14.85-11.1c-5.36-2.74-12.87-1.99-17.7-5.51c-4.86-3.53-6.46-10.91-10.69-15.15
		c-4.24-4.24-11.61-5.84-15.15-10.69c-3.52-4.83-2.77-12.34-5.51-17.7c-2.71-5.31-9.23-9.1-11.1-14.85
		c-1.83-5.65,1.2-12.55,0.26-18.54c-0.92-5.84-5.95-11.47-5.95-17.56c0-6.1,5.03-11.72,5.95-17.56c0.94-5.99-2.09-12.89-0.26-18.54
		c1.87-5.75,8.39-9.54,11.1-14.85c2.74-5.36,1.99-12.87,5.51-17.7c3.53-4.86,10.91-6.46,15.15-10.69
		c4.24-4.24,5.84-11.61,10.69-15.15c4.83-3.52,12.34-2.77,17.7-5.51c5.31-2.71,9.1-9.23,14.85-11.1c5.65-1.83,12.55,1.2,18.54,0.26
		c5.84-0.92,11.47-5.95,17.56-5.95c6.1,0,11.72,5.03,17.56,5.95c5.99,0.94,12.89-2.09,18.54-0.26c5.75,1.87,9.54,8.39,14.85,11.1
		c5.36,2.74,12.87,1.99,17.7,5.51c4.86,3.53,6.46,10.91,10.69,15.15c4.24,4.24,11.61,5.84,15.15,10.69
		c3.52,4.83,2.77,12.34,5.51,17.7c2.71,5.31,9.23,9.1,11.1,14.85c1.83,5.65-1.2,12.55-0.26,18.54
		C256.76,136.28,261.79,141.9,261.79,148z"/>
	<path class="st1" d="M261.79,148c0,6.1-5.03,11.72-5.95,17.56c-0.94,5.99,2.09,12.89,0.26,18.54c-1.87,5.75-8.39,9.54-11.1,14.85
		c-2.74,5.36-1.99,12.87-5.51,17.7c-3.53,4.86-10.91,6.46-15.15,10.69c-4.24,4.24-5.84,11.61-10.69,15.15
		c-4.83,3.52-12.34,2.77-17.7,5.51c-5.31,2.71-9.1,9.23-14.85,11.1c-5.65,1.83-12.55-1.2-18.54-0.26
		c-5.84,0.92-11.47,5.95-17.56,5.95c-6.1,0-11.72-5.03-17.56-5.95c-5.99-0.94-12.89,2.09-18.54,0.26
		c-5.75-1.87-9.54-8.39-14.85-11.1c-5.36-2.74-12.87-1.99-17.7-5.51c-4.86-3.53-6.46-10.91-10.69-15.15
		c-4.24-4.24-11.61-5.84-15.15-10.69c-3.52-4.83-2.77-12.34-5.51-17.7c-2.71-5.31-9.23-9.1-11.1-14.85
		c-1.83-5.65,1.2-12.55,0.26-18.54c-0.92-5.84-5.95-11.47-5.95-17.56c0-6.1,5.03-11.72,5.95-17.56c0.94-5.99-2.09-12.89-0.26-18.54
		c1.87-5.75,8.39-9.54,11.1-14.85c2.74-5.36,1.99-12.87,5.51-17.7c3.53-4.86,10.91-6.46,15.15-10.69
		c4.24-4.24,5.84-11.61,10.69-15.15c4.83-3.52,12.34-2.77,17.7-5.51c5.31-2.71,9.1-9.23,14.85-11.1c5.65-1.83,12.55,1.2,18.54,0.26
		c5.84-0.92,11.47-5.95,17.56-5.95c6.1,0,11.72,5.03,17.56,5.95c5.99,0.94,12.89-2.09,18.54-0.26c5.75,1.87,9.54,8.39,14.85,11.1
		c5.36,2.74,12.87,1.99,17.7,5.51c4.86,3.53,6.46,10.91,10.69,15.15c4.24,4.24,11.61,5.84,15.15,10.69
		c3.52,4.83,2.77,12.34,5.51,17.7c2.71,5.31,9.23,9.1,11.1,14.85c1.83,5.65-1.2,12.55-0.26,18.54
		C256.76,136.28,261.79,141.9,261.79,148z"/>
</g>
<path class="st2" d="M108.5,63.5c0,0,20,79-28,79"/>
<ellipse class="st1" cx="143.5" cy="169.5" rx="11" ry="3"/>
<path class="st2" d="M144,189.57L144,189.57c-8.63,0-16.97,3.35-23.03,9.49c-4.49,4.55-11.06,8.94-19.47,8.44"/>
<path class="st1" d="M136.07,190.53v21.32c0,0-0.57,9.99,7.93,9.99"/>
<circle class="st1" cx="124" cy="129" r="2.5"/>
<path class="st2" d="M179,63.5c0,0-20,79,28,79"/>
<path class="st2" d="M143.5,189.57L143.5,189.57c8.63,0,16.97,3.35,23.03,9.49c4.49,4.55,11.06,8.94,19.47,8.44"/>
<path class="st1" d="M151.43,190.53v21.32c0,0,0.57,9.99-7.93,9.99"/>
<circle class="st1" cx="163.5" cy="129" r="2.5"/>
<g>
</g>
<g>
</g>
<g>
</g>
<g>
</g>
<g>
</g>
<g>
</g>
<g>
</g>
<g>
</g>
<g>
</g>
<g>
</g>
<g>
</g>
<g>
</g>
<g>
</g>
<g>
</g>
<g>
</g>
</svg>
